<mxfile host="app.diagrams.net" modified="2023-06-29T09:55:59.182Z" agent="Mozilla/5.0 (Windows NT 10.0; Win64; x64) AppleWebKit/537.36 (KHTML, like Gecko) Chrome/114.0.0.0 Safari/537.36" etag="m8ubGcniRqEzG6pOk5k1" version="21.3.2" type="github">
  <diagram name="Page-1" id="c37626ed-c26b-45fb-9056-f9ebc6bb27b6">
    <mxGraphModel dx="3225" dy="-906" grid="1" gridSize="10" guides="1" tooltips="1" connect="1" arrows="1" fold="1" page="1" pageScale="1" pageWidth="3300" pageHeight="2339" background="none" math="0" shadow="0">
      <root>
        <mxCell id="0" />
        <mxCell id="1" parent="0" />
        <mxCell id="0KJHa0T0wx7NZVcFVNtn-58" value="" style="verticalLabelPosition=bottom;verticalAlign=top;html=1;shape=mxgraph.basic.rect;fillColor2=none;strokeWidth=1;size=20;indent=5;" vertex="1" parent="1">
          <mxGeometry x="400" y="3010" width="1890" height="1580" as="geometry" />
        </mxCell>
        <mxCell id="0KJHa0T0wx7NZVcFVNtn-12" value="" style="rounded=0;whiteSpace=wrap;html=1;fillColor=#ffe6cc;strokeColor=#d79b00;strokeWidth=2;" vertex="1" parent="1">
          <mxGeometry x="620" y="3640" width="1380" height="830" as="geometry" />
        </mxCell>
        <mxCell id="0KJHa0T0wx7NZVcFVNtn-37" value="" style="rounded=0;whiteSpace=wrap;html=1;fillColor=#fff2cc;strokeColor=#d6b656;strokeWidth=2;" vertex="1" parent="1">
          <mxGeometry x="685" y="3920" width="1255" height="500" as="geometry" />
        </mxCell>
        <mxCell id="0KJHa0T0wx7NZVcFVNtn-31" value="" style="rounded=0;whiteSpace=wrap;html=1;fillColor=#f5f5f5;fontColor=#333333;strokeColor=#666666;" vertex="1" parent="1">
          <mxGeometry x="1400" y="4180" width="480" height="200" as="geometry" />
        </mxCell>
        <mxCell id="0KJHa0T0wx7NZVcFVNtn-30" value="" style="rounded=0;whiteSpace=wrap;html=1;fillColor=#f5f5f5;fontColor=#333333;strokeColor=#666666;" vertex="1" parent="1">
          <mxGeometry x="714" y="4180" width="650" height="200" as="geometry" />
        </mxCell>
        <mxCell id="0KJHa0T0wx7NZVcFVNtn-29" value="" style="rounded=0;whiteSpace=wrap;html=1;fillColor=#f5f5f5;strokeColor=#666666;fontColor=#333333;" vertex="1" parent="1">
          <mxGeometry x="1175" y="3950" width="385" height="200" as="geometry" />
        </mxCell>
        <mxCell id="0KJHa0T0wx7NZVcFVNtn-13" value="" style="image;html=1;image=img/lib/clip_art/computers/Server_128x128.png" vertex="1" parent="1">
          <mxGeometry x="1220" y="4270" width="120" height="100" as="geometry" />
        </mxCell>
        <mxCell id="0KJHa0T0wx7NZVcFVNtn-14" value="" style="image;html=1;image=img/lib/clip_art/computers/Server_128x128.png" vertex="1" parent="1">
          <mxGeometry x="1070" y="4270" width="120" height="100" as="geometry" />
        </mxCell>
        <mxCell id="0KJHa0T0wx7NZVcFVNtn-15" value="" style="image;html=1;image=img/lib/clip_art/computers/Server_128x128.png" vertex="1" parent="1">
          <mxGeometry x="920" y="4270" width="120" height="100" as="geometry" />
        </mxCell>
        <mxCell id="0KJHa0T0wx7NZVcFVNtn-16" value="" style="image;html=1;image=img/lib/clip_art/computers/Server_128x128.png" vertex="1" parent="1">
          <mxGeometry x="770" y="4270" width="120" height="100" as="geometry" />
        </mxCell>
        <mxCell id="0KJHa0T0wx7NZVcFVNtn-17" value="" style="image;html=1;image=img/lib/clip_art/computers/Server_128x128.png" vertex="1" parent="1">
          <mxGeometry x="1720" y="4270" width="120" height="100" as="geometry" />
        </mxCell>
        <mxCell id="0KJHa0T0wx7NZVcFVNtn-18" value="" style="image;html=1;image=img/lib/clip_art/computers/Server_128x128.png" vertex="1" parent="1">
          <mxGeometry x="1570" y="4270" width="120" height="100" as="geometry" />
        </mxCell>
        <mxCell id="0KJHa0T0wx7NZVcFVNtn-19" value="" style="image;html=1;image=img/lib/clip_art/computers/Server_128x128.png" vertex="1" parent="1">
          <mxGeometry x="1420" y="4270" width="120" height="100" as="geometry" />
        </mxCell>
        <mxCell id="0KJHa0T0wx7NZVcFVNtn-20" value="" style="image;html=1;image=img/lib/clip_art/computers/Server_128x128.png" vertex="1" parent="1">
          <mxGeometry x="1390" y="4030" width="120" height="100" as="geometry" />
        </mxCell>
        <mxCell id="0KJHa0T0wx7NZVcFVNtn-21" value="" style="image;html=1;image=img/lib/clip_art/computers/Server_128x128.png" vertex="1" parent="1">
          <mxGeometry x="1240" y="4030" width="120" height="100" as="geometry" />
        </mxCell>
        <mxCell id="0KJHa0T0wx7NZVcFVNtn-22" value="&lt;font style=&quot;font-size: 30px;&quot;&gt;ECS&lt;/font&gt;" style="text;html=1;strokeColor=none;fillColor=none;align=center;verticalAlign=middle;whiteSpace=wrap;rounded=0;" vertex="1" parent="1">
          <mxGeometry x="1250" y="3960" width="250" height="60" as="geometry" />
        </mxCell>
        <mxCell id="0KJHa0T0wx7NZVcFVNtn-23" value="&lt;font style=&quot;font-size: 30px;&quot;&gt;ECS&lt;/font&gt;" style="text;html=1;strokeColor=none;fillColor=none;align=center;verticalAlign=middle;whiteSpace=wrap;rounded=0;" vertex="1" parent="1">
          <mxGeometry x="925" y="4190" width="250" height="60" as="geometry" />
        </mxCell>
        <mxCell id="0KJHa0T0wx7NZVcFVNtn-24" value="&lt;font style=&quot;font-size: 30px;&quot;&gt;ECS&lt;/font&gt;" style="text;html=1;strokeColor=none;fillColor=none;align=center;verticalAlign=middle;whiteSpace=wrap;rounded=0;" vertex="1" parent="1">
          <mxGeometry x="1490" y="4190" width="250" height="60" as="geometry" />
        </mxCell>
        <mxCell id="0KJHa0T0wx7NZVcFVNtn-32" value="&lt;font style=&quot;font-size: 40px;&quot;&gt;天翼云&lt;/font&gt;" style="text;html=1;strokeColor=none;fillColor=none;align=center;verticalAlign=middle;whiteSpace=wrap;rounded=0;strokeWidth=2;fontStyle=1;fontSize=40;" vertex="1" parent="1">
          <mxGeometry x="650" y="3670" width="180" height="60" as="geometry" />
        </mxCell>
        <mxCell id="0KJHa0T0wx7NZVcFVNtn-36" value="" style="edgeStyle=orthogonalEdgeStyle;rounded=0;orthogonalLoop=1;jettySize=auto;html=1;entryX=0.549;entryY=-0.003;entryDx=0;entryDy=0;entryPerimeter=0;strokeWidth=3;" edge="1" parent="1" source="0KJHa0T0wx7NZVcFVNtn-33" target="0KJHa0T0wx7NZVcFVNtn-37">
          <mxGeometry relative="1" as="geometry">
            <mxPoint x="1375" y="3910" as="targetPoint" />
          </mxGeometry>
        </mxCell>
        <UserObject label="" tags="Background" id="0KJHa0T0wx7NZVcFVNtn-33">
          <mxCell style="vsdxID=28;fillColor=#ECECEC;gradientColor=none;shape=stencil(7VjbUhsxDP2avGpsyddnCv/BlFAypYQJoSV/X2137cVyVkmYaacPvG02ko/O0bHsZEVXLw+3z+sVmpf9bvt9/Wtzt39Y0ZcV4ubpYb3b7PlpRdcrurrf7tbfdtvXp7vx8/PtEDk8/dj+HFZ4G/PMkIHmMH6KGXL48+ZmDH7cPC0G2wzJLwcTgfVNglkODqGsdUawNRcVIsNPkOxLKQucSVMNP1GK1hxnAJW6+0KCAWsvIXpxwj9URgvulOGH2fD3m8fHcb/U75d2w8WSSG+d6NHfteIZ1XfCfErS0mXTxnZ5gtwMl6+vuzHBThkJIk0p0yuLQNOrN5xUcEBl4emVtRBwiqLxlS9aUA3JVgP3AZztwBFb8IDgBTZBsi12iEBZwPPqKvfoAZ2Az0WvCp8MuBYePXjXwicLHlt4shCDBp+Yam7hKYAR7AdHCekHT8YWP/oW3BGEqHI34H0L7livLKT3M60CnsAGob2phqn4qUi01HpXCpzxMwjuvEoKHbxsPXN1ScDHYqwl20eI2NFH0Xpi55HAd2AEPqYe30BW6aOru+cw70Qjth3yBhLyk6tgFd9AEO0nU5ZfwGefk2g/hipJxTcgrIcIUdLnikILz6tjUunzYJNTJ4JJLTyZFtz6uUOF6DzwCraceB89TbmtWHhV0zSiigtDKPY9VPeQEs8eKVPkUHubtAQHvp3uLGO7y0SClccHJzhSEmLpW02wOod3W2+h9W2Ct/PEnxIcKBR8mg+eKT4V6xxPMIVhpVBrPE4hSQrscdREyvPkmt2sIQQgGR+UGz+LaoQxqGyxpYpc61TMZZQv9Tm0XWCze61tvlw73nEg5RrlsUNwZbwcv+p0fbMnrlI9B1d0O15Shpgk6ayUxLeTevhV0lmRlUnnlgPfAbImq4HUWokHt1dkdV6qxNbIWh+k93gooRbvS8HvKrJRaQN1U9LofeN7o9gOWRyWIiF3Y8+Xi9PRhMgHmZMIpLQhJHFr5kGMygYNPKezVFUTlY82AeDLbXWpa7GbAEHb0L3zAlh9Jok5zNcPUrrAX/uW84CplHT6+Lz819znPwrnBXfKdL8SL1PmZOUfvWN9/n/3X3mqaaNoIT/If2X51fiPLl3/Bg==);strokeColor=#5E5E5E;strokeWidth=2;spacingTop=-3;spacingBottom=-3;spacingLeft=-3;spacingRight=-3;points=[];labelBackgroundColor=none;rounded=0;html=1;whiteSpace=wrap;" vertex="1" parent="1">
            <mxGeometry x="1333.38" y="3777" width="81.25" height="78" as="geometry" />
          </mxCell>
        </UserObject>
        <mxCell id="0KJHa0T0wx7NZVcFVNtn-35" value="&lt;font style=&quot;font-size: 30px;&quot;&gt;SLB&lt;/font&gt;" style="text;html=1;strokeColor=none;fillColor=none;align=center;verticalAlign=middle;whiteSpace=wrap;rounded=0;" vertex="1" parent="1">
          <mxGeometry x="1400" y="3786" width="120" height="60" as="geometry" />
        </mxCell>
        <mxCell id="0KJHa0T0wx7NZVcFVNtn-39" style="edgeStyle=orthogonalEdgeStyle;rounded=0;orthogonalLoop=1;jettySize=auto;html=1;entryX=0.533;entryY=-0.001;entryDx=0;entryDy=0;entryPerimeter=0;strokeWidth=3;" edge="1" parent="1" source="0KJHa0T0wx7NZVcFVNtn-38" target="0KJHa0T0wx7NZVcFVNtn-33">
          <mxGeometry relative="1" as="geometry" />
        </mxCell>
        <mxCell id="0KJHa0T0wx7NZVcFVNtn-38" value="" style="image;sketch=0;aspect=fixed;html=1;points=[];align=center;fontSize=12;image=img/lib/mscae/Azure_Firewall.svg;" vertex="1" parent="1">
          <mxGeometry x="1319" y="3581.69" width="116.62" height="116.62" as="geometry" />
        </mxCell>
        <mxCell id="0KJHa0T0wx7NZVcFVNtn-42" style="edgeStyle=orthogonalEdgeStyle;rounded=0;orthogonalLoop=1;jettySize=auto;html=1;strokeWidth=3;" edge="1" parent="1" source="0KJHa0T0wx7NZVcFVNtn-51">
          <mxGeometry relative="1" as="geometry">
            <mxPoint x="1377.31" y="3580" as="targetPoint" />
          </mxGeometry>
        </mxCell>
        <mxCell id="0KJHa0T0wx7NZVcFVNtn-40" value="" style="fontColor=#0066CC;verticalAlign=top;verticalLabelPosition=bottom;labelPosition=center;align=center;html=1;outlineConnect=0;fillColor=#CCCCCC;strokeColor=#6881B3;gradientColor=none;gradientDirection=north;strokeWidth=2;shape=mxgraph.networks.pc;" vertex="1" parent="1">
          <mxGeometry x="1300" y="3230" width="152.5" height="100" as="geometry" />
        </mxCell>
        <mxCell id="0KJHa0T0wx7NZVcFVNtn-41" value="&lt;span style=&quot;font-size: 30px;&quot;&gt;互联网用户&lt;/span&gt;" style="text;html=1;strokeColor=none;fillColor=none;align=center;verticalAlign=middle;whiteSpace=wrap;rounded=0;" vertex="1" parent="1">
          <mxGeometry x="1471.25" y="3280" width="170" height="60" as="geometry" />
        </mxCell>
        <mxCell id="0KJHa0T0wx7NZVcFVNtn-52" value="" style="edgeStyle=orthogonalEdgeStyle;rounded=0;orthogonalLoop=1;jettySize=auto;html=1;strokeWidth=3;" edge="1" parent="1" source="0KJHa0T0wx7NZVcFVNtn-40">
          <mxGeometry relative="1" as="geometry">
            <mxPoint x="1374.1111111111113" y="3459" as="targetPoint" />
            <mxPoint x="1377" y="3419" as="sourcePoint" />
          </mxGeometry>
        </mxCell>
        <mxCell id="0KJHa0T0wx7NZVcFVNtn-51" value="&lt;font style=&quot;font-size: 30px;&quot;&gt;SSL证书&lt;/font&gt;" style="shape=cube;whiteSpace=wrap;html=1;boundedLbl=1;backgroundOutline=1;darkOpacity=0.05;darkOpacity2=0.1;" vertex="1" parent="1">
          <mxGeometry x="1295.31" y="3420" width="163.99" height="80" as="geometry" />
        </mxCell>
        <mxCell id="0KJHa0T0wx7NZVcFVNtn-54" value="&lt;font style=&quot;font-size: 30px;&quot;&gt;云监控&lt;/font&gt;" style="labelPosition=center;verticalLabelPosition=middle;align=center;html=1;shape=mxgraph.basic.shaded_button;dx=10;fillColor=#E6E6E6;strokeColor=none;whiteSpace=wrap;" vertex="1" parent="1">
          <mxGeometry x="1760" y="3660" width="210" height="90" as="geometry" />
        </mxCell>
      </root>
    </mxGraphModel>
  </diagram>
</mxfile>
